<?xml version="1.0" encoding="UTF-8" standalone="no"?>
<!DOCTYPE svg PUBLIC "-//W3C//DTD SVG 20010904//EN"
              "http://www.w3.org/TR/2001/REC-SVG-20010904/DTD/svg10.dtd">

<svg xmlns="http://www.w3.org/2000/svg"
     width="0.333333in" height="0.333333in"
     viewBox="0 0 100 100">
  <path id="Auswahl"
        fill="none" stroke="black" stroke-width="1"
        d="M 27.00,23.00
           C 27.00,23.00 35.00,23.00 35.00,23.00
             35.00,23.00 35.00,52.00 35.00,52.00
             35.00,52.00 54.01,32.00 54.01,32.00
             54.01,32.00 64.00,23.60 64.00,23.60
             64.00,23.60 73.00,23.00 73.00,23.00
             68.58,29.17 59.65,37.31 54.00,43.00
             51.78,45.24 47.58,48.42 48.91,52.00
             49.51,53.61 55.54,60.30 57.05,62.00
             57.05,62.00 74.00,82.00 74.00,82.00
             74.00,82.00 63.01,80.98 63.01,80.98
             63.01,80.98 55.00,73.00 55.00,73.00
             55.00,73.00 40.00,56.00 40.00,56.00
             40.00,56.00 36.01,62.00 36.01,62.00
             36.01,62.00 35.00,82.00 35.00,82.00
             35.00,82.00 27.00,82.00 27.00,82.00
             27.00,82.00 27.00,23.00 27.00,23.00 Z" />
</svg>
